<?xml version="1.0" encoding="utf-8"?>
<!-- Generator: Adobe Illustrator 19.2.1, SVG Export Plug-In . SVG Version: 6.00 Build 0)  -->
<svg version="1.1" id="Logo" xmlns="http://www.w3.org/2000/svg" xmlns:xlink="http://www.w3.org/1999/xlink" x="0px" y="0px"
	 viewBox="0 0 567.2 139.7" style="enable-background:new 0 0 567.2 139.7;" xml:space="preserve">
<style type="text/css">
	.st0{fill:#F78E1E;}
	.st1{fill:#009B7A;}
</style>
<g>
	<g>
		<path class="st0" d="M159.6,16.5H179c20,0,33.7,8.6,33.7,30.2S199,77.4,180,77.4h-20.4V16.5z M178,64.4c9.5,0,17-3.6,17-17.8
			s-7.5-17.2-17-17.2h-1v35H178z"/>
		<path class="st0" d="M231.8,46.6c0-20,12.3-31.3,30.5-31.3c18.2,0,30.5,11.3,30.5,31.3c0,20-12.3,31.8-30.5,31.8
			C244.1,78.5,231.8,66.7,231.8,46.6z M275,46.6c0-11-4.8-17.4-12.7-17.4c-7.9,0-12.7,6.4-12.7,17.4s4.8,18,12.7,18
			C270.2,64.6,275,57.7,275,46.6z"/>
		<path class="st0" d="M314.6,16.5h18l10.3,25.3l3.6,9.9h0.4l3.6-9.9l9.9-25.3h18v60.9h-16.2v-18c0-6.2,1.4-15.6,2.2-21.7h-0.4
			l-5.5,14.2l-9.1,20.5h-6.5L334,51.9l-5.3-14.2h-0.4c0.8,6.1,2.2,15.5,2.2,21.7v18h-16V16.5z"/>
		<path class="st0" d="M403.1,16.5h17.4v60.9h-17.4V16.5z"/>
		<path class="st0" d="M474.4,15.4c8.3,0,15.4,3.7,20,8.1l-9.5,9.9c-3.2-2.6-6.1-4.1-10.3-4.1c-7.9,0-14.5,6.6-14.5,17.6
			c0,11.4,5.7,17.8,14.1,17.8c5.1,0,8.7-2.1,11.5-4.9l9.5,9.7c-5.6,6-13.1,9-21.2,9c-17.2,0-31.7-10.3-31.7-31.1
			C442.3,27,457.5,15.4,474.4,15.4z"/>
		<path class="st0" d="M545.6,64.4h-18.4l-3.2,12.9h-17.8l20-60.9h21l20,60.9h-18.4L545.6,64.4z M542.4,52l-1.1-4.2
			c-1.6-5.8-3.2-13.2-4.8-19.3h-0.4c-1.4,6.2-3,13.5-4.6,19.3l-1.1,4.2H542.4z"/>
	</g>
	<g>
		<path class="st1" d="M181.6,138.9l-9.7-17h-7.3v17h-5.2V98.6h12.7c8.2,0,14.1,3,14.1,11.3c0,6.3-3.6,10-9,11.4l10.3,17.6H181.6z
			 M164.7,117.7h6.8c6.3,0,9.7-2.6,9.7-7.8c0-5.3-3.4-7.2-9.7-7.2h-6.8V117.7z"/>
		<path class="st1" d="M201.1,98.6h23.2v4.3h-18.1v12.7h15.3v4.4h-15.3v14.6h18.7v4.4h-23.9V98.6z"/>
		<path class="st1" d="M239.3,98.6h5.3l14.6,25.3l4.4,8.4h0.2c-0.2-4.1-0.7-8.6-0.7-12.9V98.6h4.9v40.3h-5.3l-14.6-25.4l-4.4-8.3
			h-0.2c0.2,4.1,0.6,8.4,0.6,12.6v21.1h-4.9V98.6z"/>
		<path class="st1" d="M293.4,102.9h-12.2v-4.3h29.6v4.3h-12.2v36h-5.1V102.9z"/>
		<path class="st1" d="M360.8,126.6h-14.7l-3.9,12.3H337l13.7-40.3h5.8l13.7,40.3h-5.4L360.8,126.6z M359.5,122.5l-1.9-6.1
			c-1.4-4.5-2.7-8.9-4-13.6h-0.2c-1.3,4.7-2.6,9.1-4,13.6l-2,6.1H359.5z"/>
		<path class="st1" d="M400.1,98.6h5.2v16.9h18.8V98.6h5.1v40.3h-5.1v-19h-18.8v19h-5.2V98.6z"/>
		<path class="st1" d="M443.7,118.6c0-12.9,7.1-20.7,17.3-20.7c10.1,0,17.2,7.9,17.2,20.7c0,13-7.1,21.1-17.2,21.1
			C450.9,139.7,443.7,131.6,443.7,118.6z M473,118.6c0-10-4.7-16.2-11.9-16.2c-7.3,0-12,6.2-12,16.2c0,10.1,4.7,16.6,12,16.6
			C468.2,135.2,473,128.7,473,118.6z"/>
		<path class="st1" d="M492.8,98.6h6.1l7.8,21.6l2.9,8.2h0.2l2.8-8.2l7.7-21.6h6v40.3h-4.9v-22.2c0-3.6,0.4-8.4,0.7-11.9H522l-3.2,9
			l-7.7,21.1h-3l-7.8-21.1l-3.2-9h-0.2c0.2,3.6,0.6,8.4,0.6,11.9v22.2h-4.7V98.6z"/>
		<path class="st1" d="M543.3,98.6h23.2v4.3h-18.1v12.7h15.3v4.4h-15.3v14.6h18.7v4.4h-23.9V98.6z"/>
	</g>
	<g>
		<rect x="0.1" y="29.2" class="st0" width="15.9" height="81.9"/>
		<rect x="39.7" y="31.8" class="st0" width="15.9" height="79.1"/>
		<rect x="79.5" y="31.8" class="st0" width="15.9" height="79.1"/>
		<rect x="119.3" y="29.2" class="st0" width="15.9" height="81.9"/>
		<polygon class="st0" points="0,15.9 0,15.9 135.1,15.9 135.1,15.9 67.7,0 		"/>
		<rect y="15.9" class="st0" width="135.1" height="15.9"/>
		<rect y="122.2" class="st0" width="135.1" height="15.9"/>
	</g>
</g>
</svg>
